<?xml version="1.0" encoding="UTF-8" standalone="no"?>
<!DOCTYPE svg PUBLIC "-//W3C//DTD SVG 1.1//EN" "http://www.w3.org/Graphics/SVG/1.1/DTD/svg11.dtd">
<svg version="1.1" xmlns="http://www.w3.org/2000/svg" xmlns:xlink="http://www.w3.org/1999/xlink" preserveAspectRatio="xMidYMid meet" viewBox="0 0 640 640" width="640" height="640"><defs><path d="M320 0C234.53 0 154.17 33.29 93.73 93.73C33.28 154.17 0 234.53 0 320C0 405.48 33.28 485.84 93.73 546.27C154.17 606.71 234.53 640 320 640C405.48 640 485.84 606.71 546.27 546.27C606.72 485.84 640 405.48 640 320C640 234.53 606.72 154.17 546.27 93.73C485.84 33.29 405.48 0 320 0ZM38.1 320C38.1 164.56 164.56 38.1 320 38.1C475.44 38.1 601.91 164.56 601.91 320C601.91 475.44 475.44 601.91 320 601.91C164.56 601.91 38.1 475.44 38.1 320Z" id="f1yPttvhUN"></path><path d="M137.64 235.49C130.2 242.93 130.2 254.99 137.64 262.43C145.08 269.87 157.14 269.87 164.58 262.43C180.92 246.09 207.51 246.1 223.84 262.43C227.56 266.15 232.44 268.01 237.31 268.01C242.18 268.01 247.06 266.15 250.78 262.43C258.22 254.99 258.22 242.93 250.78 235.49C219.59 204.3 168.83 204.3 137.64 235.49Z" id="f1lrDHWQha"></path><path d="M389.22 235.49C381.78 242.93 381.78 254.99 389.22 262.43C396.66 269.87 408.72 269.87 416.16 262.43C432.5 246.09 459.08 246.09 475.42 262.43C479.14 266.15 484.01 268.01 488.89 268.01C493.76 268.01 498.64 266.15 502.36 262.43C509.79 254.99 509.79 242.93 502.36 235.49C471.16 204.3 420.41 204.3 389.22 235.49Z" id="czfIxDmRO"></path><path d="M151.11 333.97C140.59 333.97 132.06 342.5 132.06 353.02C132.06 456.64 216.37 540.95 320 540.95C423.63 540.95 507.94 456.64 507.94 353.02C507.94 342.5 499.41 333.97 488.89 333.97C421.33 333.97 184.89 333.97 151.11 333.97ZM171.36 372.06C201.09 372.06 438.91 372.06 468.64 372.06C459.25 445.73 396.17 502.86 320 502.86C243.83 502.86 180.75 445.73 171.36 372.06Z" id="d9AWC9l3V"></path></defs><g><g><g><use xlink:href="#f1yPttvhUN" opacity="1" fill="#ffb817" fill-opacity="1"></use><g><use xlink:href="#f1yPttvhUN" opacity="1" fill-opacity="0" stroke="#000000" stroke-width="1" stroke-opacity="0"></use></g></g><g><use xlink:href="#f1lrDHWQha" opacity="1" fill="#ffb817" fill-opacity="1"></use><g><use xlink:href="#f1lrDHWQha" opacity="1" fill-opacity="0" stroke="#000000" stroke-width="1" stroke-opacity="0"></use></g></g><g><use xlink:href="#czfIxDmRO" opacity="1" fill="#ffb817" fill-opacity="1"></use><g><use xlink:href="#czfIxDmRO" opacity="1" fill-opacity="0" stroke="#000000" stroke-width="1" stroke-opacity="0"></use></g></g><g><use xlink:href="#d9AWC9l3V" opacity="1" fill="#ffb817" fill-opacity="1"></use><g><use xlink:href="#d9AWC9l3V" opacity="1" fill-opacity="0" stroke="#000000" stroke-width="1" stroke-opacity="0"></use></g></g></g></g></svg>