<?xml version="1.0" encoding="UTF-8" standalone="no"?>
<!DOCTYPE svg PUBLIC "-//W3C//DTD SVG 1.1//EN" "http://www.w3.org/Graphics/SVG/1.1/DTD/svg11.dtd">
<svg version="1.1" xmlns="http://www.w3.org/2000/svg" xmlns:xlink="http://www.w3.org/1999/xlink" preserveAspectRatio="xMidYMid meet" viewBox="0 0 640 640" width="640" height="640"><defs><path d="M411.6 336.11C407.72 332.29 405.57 330.17 405.14 329.74C426.67 306.39 439.6 272.42 439.6 238.45C439.6 159.89 374.98 96.2 295.3 96.2C215.61 96.2 153.15 159.89 153.15 238.45C153.15 317 217.76 380.7 297.45 380.7C331.91 380.7 366.37 367.96 390.06 346.73C390.49 347.15 392.64 349.27 396.52 353.1L396.52 370.08L506.36 478.36L538.67 446.51L430.98 336.11L411.6 336.11ZM198.38 238.45C198.38 185.37 243.61 140.78 297.45 140.78C351.29 140.78 396.52 185.37 396.52 238.45C396.52 291.53 353.45 336.11 297.45 336.11C241.45 336.11 198.38 291.53 198.38 238.45Z" id="bo7IabLVg"></path></defs><g><g><g><use xlink:href="#bo7IabLVg" opacity="1" fill="#d7d7d7" fill-opacity="1"></use><g><use xlink:href="#bo7IabLVg" opacity="1" fill-opacity="0" stroke="#000000" stroke-width="1" stroke-opacity="0"></use></g></g></g></g></svg>