<?xml version="1.0" encoding="UTF-8" standalone="no"?>
<!DOCTYPE svg PUBLIC "-//W3C//DTD SVG 1.1//EN" "http://www.w3.org/Graphics/SVG/1.1/DTD/svg11.dtd">
<svg version="1.1" xmlns="http://www.w3.org/2000/svg" xmlns:xlink="http://www.w3.org/1999/xlink" preserveAspectRatio="xMidYMid meet" viewBox="0 0 640 640" width="640" height="640"><defs><path d="M330.32 309.68C330.32 130.06 330.32 30.28 330.32 10.32C330.32 4.62 325.7 0 320 0C314.3 0 309.68 4.62 309.68 10.32C309.68 30.28 309.68 130.06 309.68 309.68C130.06 309.68 30.28 309.68 10.32 309.68C4.62 309.68 0 314.3 0 320C0 325.7 4.62 330.32 10.32 330.32C30.28 330.32 130.06 330.32 309.68 330.32C309.68 509.94 309.68 609.72 309.68 629.68C309.68 635.38 314.3 640 320 640C325.7 640 330.32 635.38 330.32 629.68C330.32 609.72 330.32 509.94 330.32 330.32C509.94 330.32 609.72 330.32 629.68 330.32C635.38 330.32 640 325.7 640 320C640 314.3 635.38 309.68 629.68 309.68C589.76 309.68 489.98 309.68 330.32 309.68Z" id="b2A8qOz9rL"></path></defs><g><g><g><use xlink:href="#b2A8qOz9rL" opacity="1" fill="#dbdbdb" fill-opacity="1"></use><g><use xlink:href="#b2A8qOz9rL" opacity="1" fill-opacity="0" stroke="#000000" stroke-width="1" stroke-opacity="0"></use></g></g></g></g></svg>