<?xml version="1.0" encoding="UTF-8" standalone="no"?>
<!DOCTYPE svg PUBLIC "-//W3C//DTD SVG 1.1//EN" "http://www.w3.org/Graphics/SVG/1.1/DTD/svg11.dtd">
<svg version="1.1" xmlns="http://www.w3.org/2000/svg" xmlns:xlink="http://www.w3.org/1999/xlink" preserveAspectRatio="xMidYMid meet" viewBox="0 0 640 640" width="640" height="640"><defs><path d="M333.35 67.08C303.94 96.5 68.64 331.79 39.23 361.2C-13.95 415.64 -12.93 502.88 41.5 556.06C95.04 608.37 180.55 608.37 234.09 556.06C260.72 529.43 473.78 316.37 500.42 289.73C535.04 255.11 535.04 198.97 500.42 164.35C465.79 129.73 409.66 129.73 375.04 164.35C349.56 189.83 145.76 393.62 120.29 419.1C111.4 428.3 111.66 442.96 120.86 451.84C129.83 460.51 144.06 460.51 153.03 451.84C178.51 426.37 382.31 222.57 407.78 197.1C424.67 180.91 451.49 181.49 467.67 198.38C483.36 214.77 483.36 240.6 467.67 256.99C441.04 283.62 227.98 496.68 201.34 523.31C165.37 558.78 107.45 558.37 71.98 522.39C36.87 486.77 36.87 429.56 71.98 393.95C101.39 364.54 336.68 129.24 366.1 99.83C418.49 47.42 503.44 47.41 555.85 99.8C608.26 152.18 608.27 237.14 555.88 289.55C526.47 318.96 291.18 554.25 261.77 583.67C252.05 591.99 250.92 606.61 259.24 616.32C267.56 626.03 282.18 627.17 291.89 618.85C292.8 618.07 293.64 617.23 294.42 616.32C323.83 586.91 559.13 351.61 588.54 322.2C658.23 250.98 656.98 136.74 585.76 67.05C515.61 -1.58 403.47 -1.57 333.35 67.08Z" id="o3mr6y2OgA"></path></defs><g><g><g><use xlink:href="#o3mr6y2OgA" opacity="1" fill="#dedede" fill-opacity="1"></use><g><use xlink:href="#o3mr6y2OgA" opacity="1" fill-opacity="0" stroke="#000000" stroke-width="1" stroke-opacity="0"></use></g></g></g></g></svg>