<?xml version="1.0" encoding="UTF-8" standalone="no"?>
<!DOCTYPE svg PUBLIC "-//W3C//DTD SVG 1.1//EN" "http://www.w3.org/Graphics/SVG/1.1/DTD/svg11.dtd">
<svg version="1.1" xmlns="http://www.w3.org/2000/svg" xmlns:xlink="http://www.w3.org/1999/xlink" preserveAspectRatio="xMidYMid meet" viewBox="0 0 640 640" width="640" height="640"><defs><path d="M232.11 512C215.96 512 202.33 499.9 200.41 483.84C199.9 479.84 195.82 447.82 195.31 443.82C185.13 440.51 175.32 436.44 165.99 431.68C162.81 434.16 137.31 453.97 134.12 456.45C121.19 466.45 103 465.3 91.78 453.76C88.42 450.4 61.54 423.52 58.18 420.16C46.72 409.05 45.57 390.85 55.57 377.94C58.05 374.75 77.86 349.24 80.34 346.05C75.56 336.73 71.49 326.91 68.2 316.74C64.19 316.23 32.11 312.15 28.1 311.64C12.1 309.67 0 296.04 0 279.89C0 275.11 0 236.89 0 232.11C0 215.96 12.1 202.33 28.16 200.41C32.16 199.9 64.18 195.82 68.18 195.31C71.49 185.13 75.56 175.32 80.32 165.99C77.85 162.81 58.05 137.31 55.57 134.12C45.55 121.19 46.72 102.98 58.28 91.75C61.64 88.39 88.52 61.51 91.88 58.15C103 46.7 121.22 45.57 134.1 55.55C137.29 58.03 162.79 77.86 165.97 80.34C175.3 75.58 185.11 71.51 195.31 68.2C195.82 64.19 199.9 32.11 200.41 28.1C202.33 12.1 215.96 0 232.11 0C236.89 0 275.11 0 279.89 0C296.04 0 309.67 12.1 311.59 28.16C312.1 32.16 316.18 64.18 316.69 68.18C326.89 71.49 336.7 75.56 346.03 80.32C349.21 77.84 374.71 58.03 377.9 55.55C390.85 45.55 409.02 46.7 420.25 58.26C423.61 61.62 450.49 88.5 453.85 91.86C465.3 102.98 466.45 121.17 456.45 134.08C453.97 137.27 434.16 162.78 431.68 165.97C436.46 175.3 440.53 185.11 443.82 195.29C447.83 195.8 479.91 199.87 483.93 200.38C499.9 202.33 512 215.96 512 232.11C512 236.89 512 275.11 512 279.89C512 296.04 499.9 309.67 483.84 311.59C479.84 312.1 447.82 316.18 443.82 316.69C440.51 326.87 436.44 336.68 431.68 346.01C434.16 349.19 453.97 374.69 456.45 377.88C466.47 390.81 465.3 409 453.74 420.22C450.38 423.58 423.5 450.46 420.14 453.82C409.02 465.28 390.81 466.45 377.92 456.43C374.73 453.95 349.22 434.14 346.03 431.66C336.7 436.44 326.89 440.51 316.71 443.8C316.2 447.81 312.13 479.89 311.62 483.9C309.67 499.9 296.04 512 279.89 512C270.34 512 236.89 512 232.11 512ZM170.11 409.66C181.87 416.23 194.6 421.53 207.96 425.37C212.05 426.54 215.06 430.04 215.59 434.26C216.19 438.95 220.97 476.5 221.57 481.19C222.21 486.55 226.84 490.67 232.11 490.67C236.89 490.67 275.11 490.67 279.89 490.67C285.16 490.67 289.79 486.55 290.41 481.3C291.01 476.6 295.81 438.98 296.41 434.28C296.94 430.06 299.95 426.56 304.04 425.39C317.4 421.55 330.13 416.26 341.89 409.69C345.62 407.59 350.27 407.96 353.62 410.58C357.35 413.48 387.22 436.69 390.95 439.59C395.24 442.92 401.26 442.65 404.93 438.87C408.31 435.49 435.36 408.44 438.74 405.06C442.6 401.3 442.9 395.29 439.57 390.98C436.67 387.24 413.46 357.38 410.56 353.64C407.94 350.27 407.57 345.64 409.66 341.91C416.23 330.15 421.53 317.42 425.37 304.06C426.54 299.97 430.04 296.96 434.26 296.43C438.95 295.83 476.5 291.05 481.19 290.45C486.55 289.79 490.67 285.16 490.67 279.89C490.67 275.11 490.67 236.89 490.67 232.11C490.67 226.84 486.55 222.21 481.3 221.59C476.6 220.99 438.98 216.19 434.28 215.59C430.06 215.06 426.56 212.05 425.39 207.96C421.55 194.6 416.26 181.87 409.69 170.11C407.59 166.38 407.94 161.75 410.58 158.38C413.48 154.65 436.69 124.78 439.59 121.05C442.94 116.74 442.65 110.72 438.89 107.09C435.51 103.71 408.46 76.66 405.08 73.28C401.34 69.4 395.31 69.1 391 72.45C387.26 75.35 357.4 98.56 353.66 101.46C350.27 104.09 345.64 104.45 341.91 102.36C330.2 95.79 317.46 90.52 304.06 86.66C299.97 85.48 296.96 81.98 296.43 77.76C295.83 73.07 291.05 35.52 290.45 30.83C289.79 25.45 285.16 21.33 279.89 21.33C275.11 21.33 236.89 21.33 232.11 21.33C226.84 21.33 222.21 25.45 221.59 30.7C220.99 35.4 216.19 73.02 215.59 77.72C215.06 81.94 212.05 85.44 207.96 86.63C194.56 90.47 181.82 95.77 170.11 102.31C166.38 104.43 161.75 104.04 158.36 101.44C154.62 98.54 124.76 75.33 121.02 72.43C116.71 69.08 110.72 69.38 107.07 73.13C103.69 76.51 76.64 103.58 73.26 106.97C69.4 110.72 69.1 116.74 72.43 121.05C75.33 124.78 98.54 154.65 101.44 158.38C104.06 161.75 104.43 166.38 102.34 170.11C95.74 181.87 90.47 194.6 86.63 207.96C85.46 212.05 81.96 215.06 77.74 215.59C73.05 216.19 35.5 220.97 30.81 221.57C25.45 222.21 21.33 226.84 21.33 232.11C21.33 236.89 21.33 275.11 21.33 279.89C21.33 285.16 25.45 289.79 30.7 290.41C35.4 291.01 73.02 295.81 77.72 296.41C81.94 296.94 85.44 299.95 86.61 304.04C90.45 317.4 95.74 330.13 102.31 341.89C104.41 345.62 104.06 350.25 101.42 353.62C98.52 357.35 75.31 387.22 72.41 390.95C69.06 395.26 69.35 401.28 73.11 404.91C76.49 408.29 103.54 435.34 106.92 438.72C110.66 442.58 116.65 442.88 121 439.55C124.74 436.65 154.6 413.44 158.34 410.54C160.28 409.09 162.58 408.32 164.91 408.32C166.68 408.32 168.49 408.77 170.11 409.66Z" id="b8EhyUdMhs"></path><path d="M149.33 256C149.33 197.18 197.18 149.33 256 149.33C314.82 149.33 362.67 197.18 362.67 256C362.67 314.82 314.82 362.67 256 362.67C197.18 362.67 149.33 314.82 149.33 256ZM170.67 256C170.67 303.06 208.94 341.33 256 341.33C303.06 341.33 341.33 303.06 341.33 256C341.33 208.94 303.06 170.67 256 170.67C208.94 170.67 170.67 208.94 170.67 256Z" id="fxSdacP9C"></path></defs><g><g><g><use xlink:href="#b8EhyUdMhs" opacity="1" fill="#d7d7d7" fill-opacity="1"></use><g><use xlink:href="#b8EhyUdMhs" opacity="1" fill-opacity="0" stroke="#000000" stroke-width="1" stroke-opacity="0"></use></g></g><g><use xlink:href="#fxSdacP9C" opacity="1" fill="#d7d7d7" fill-opacity="1"></use><g><use xlink:href="#fxSdacP9C" opacity="1" fill-opacity="0" stroke="#000000" stroke-width="1" stroke-opacity="0"></use></g></g></g></g></svg>