<?xml version="1.0" encoding="UTF-8" standalone="no"?>
<!DOCTYPE svg PUBLIC "-//W3C//DTD SVG 1.1//EN" "http://www.w3.org/Graphics/SVG/1.1/DTD/svg11.dtd">
<svg version="1.1" xmlns="http://www.w3.org/2000/svg" xmlns:xlink="http://www.w3.org/1999/xlink" preserveAspectRatio="xMidYMid meet" viewBox="0 0 640 640" width="640" height="640"><defs><path d="M76 166C76 182.82 89.18 196 106 196C122.82 196 136 182.82 136 166C136 149.18 122.82 136 106 136C89.18 136 76 149.18 76 166ZM166 136C149.18 136 136 149.18 136 166C136 182.82 149.18 196 166 196C182.82 196 196 182.82 196 166C196 149.18 182.82 136 166 136ZM256 166C256 149.18 242.82 136 226 136C209.18 136 196 149.18 196 166C196 182.82 209.18 196 226 196C242.82 196 256 182.82 256 166ZM503.68 483.57C484.9 472.02 478.66 446.69 489.91 427.88C504.56 402.4 512 374.84 512 346C512 255.02 436.97 181 346 181C332.67 181 320.04 182.47 308.47 185.34C303.02 186.7 298.77 191.02 297.49 196.5C285.94 246.27 246.3 285.91 196.5 297.5C191.02 298.77 186.71 303.01 185.34 308.47C182.47 320.01 181 332.64 181 346C181 436.98 255.03 512 346 512C361.1 512 481.9 512 497 512C503.94 512 510.01 507.21 511.59 500.44C513.2 493.68 509.92 486.69 503.71 483.58C503.7 483.58 503.68 483.57 503.68 483.57Z" id="bfgwtjhQv"></path><linearGradient id="gradientbHLOcZmuc" gradientUnits="userSpaceOnUse" x1="294" y1="512" x2="294" y2="136"><stop style="stop-color: #433aff;stop-opacity: 1" offset="0%"></stop><stop style="stop-color: #b381ff;stop-opacity: 1" offset="100%"></stop></linearGradient><path d="M0 166C0 194.8 7.5 223 21.9 247.3C33 266.8 26.7 291.7 7.5 303.1C1.5 306.4 -1.2 313.3 0.6 319.9C2.4 326.5 8.1 331 15 331C30.1 331 150.9 331 166 331C179.2 331 192.1 329.5 203.2 326.8C264.1 312.7 312.7 264.1 326.8 203.5C329.5 192.1 331 179.5 331 166C331 75.1 256.9 0 166 0C75.1 0 0 75.1 0 166ZM91 166C91 157.6 97.6 151 106 151C114.4 151 121 157.6 121 166C121 174.4 114.4 181 106 181C97.6 181 91 174.4 91 166ZM151 166C151 157.6 157.6 151 166 151C174.4 151 181 157.6 181 166C181 174.4 174.4 181 166 181C157.6 181 151 174.4 151 166ZM211 166C211 157.6 217.6 151 226 151C234.4 151 241 157.6 241 166C241 174.4 234.4 181 226 181C217.6 181 211 174.4 211 166ZM271 346C271 354.28 277.72 361 286 361C294.28 361 301 354.28 301 346C301 337.72 294.28 331 286 331C277.72 331 271 337.72 271 346ZM331 346C331 354.28 337.72 361 346 361C354.28 361 361 354.28 361 346C361 337.72 354.28 331 346 331C337.72 331 331 337.72 331 346ZM391 346C391 354.28 397.72 361 406 361C414.28 361 421 354.28 421 346C421 337.72 414.28 331 406 331C397.72 331 391 337.72 391 346Z" id="c2jaB0bsoK"></path><linearGradient id="gradientaaRSJJRNZ" gradientUnits="userSpaceOnUse" x1="210.5" y1="361" x2="210.5" y2="0"><stop style="stop-color: #bee4ff;stop-opacity: 1" offset="0%"></stop><stop style="stop-color: #f1ffff;stop-opacity: 1" offset="100%"></stop></linearGradient></defs><g><g><g><use xlink:href="#bfgwtjhQv" opacity="1" fill="url(#gradientbHLOcZmuc)"></use><g><use xlink:href="#bfgwtjhQv" opacity="1" fill-opacity="0" stroke="#000000" stroke-width="1" stroke-opacity="0"></use></g></g><g><use xlink:href="#c2jaB0bsoK" opacity="1" fill="url(#gradientaaRSJJRNZ)"></use><g><use xlink:href="#c2jaB0bsoK" opacity="1" fill-opacity="0" stroke="#000000" stroke-width="1" stroke-opacity="0"></use></g></g></g></g></svg>